<svg width="16" height="16" version="1.1" xmlns="http://www.w3.org/2000/svg">
  <defs>
    <style id="current-color-scheme" type="text/css">.ColorScheme-Text { color:#ebdbb2; } .ColorScheme-Highlight { color:#60834a; } .ColorScheme-NeutralText { color:#85ac6b; } .ColorScheme-PositiveText { color:#7ba560; } .ColorScheme-NegativeText { color:#91b47b; }</style>
  </defs>
  <path class="ColorScheme-Text" d="m8 1a7 7 0 0 0-7 7 7 7 0 0 0 7 7 7 7 0 0 0 3.588-1h-0.588a1 1 0 0 1-1-1v-1a1 1 0 0 1 1-1h2a1 1 0 0 1 0.943-0.998 1 1 0 0 1 0.657 0.197l0.029 0.022a7 7 0 0 0 0.371-2.221 7 7 0 0 0-7-7zm-2 4v2h4v-2l3 3-3 3v-2h-4v2l-3-3zm8 6v1h-3v1h3v1l2-1.5z" fill="currentColor"/>
</svg>
