<svg width="22" height="22" version="1.1" xmlns="http://www.w3.org/2000/svg">
  <defs>
    <linearGradient id="linearGradient254" x1="15" x2="8" y1="8" y2="1" gradientUnits="userSpaceOnUse">
      <stop stop-color="#547240" offset="0"/>
      <stop stop-color="#6a9051" offset=".313"/>
      <stop stop-color="#98b983" offset=".563"/>
      <stop stop-color="#7ba560" offset=".75"/>
      <stop stop-color="#60834a" offset="1"/>
    </linearGradient>
    <linearGradient id="linearGradient256" x1="1" x2="8" y1="8" y2="1" gradientUnits="userSpaceOnUse">
      <stop stop-color="#91b47b" offset="0"/>
      <stop stop-color="#6e9554" offset=".313"/>
      <stop stop-color="#61844a" offset=".563"/>
      <stop stop-color="#60834a" offset=".75"/>
      <stop stop-color="#8eb276" offset="1"/>
    </linearGradient>
    <linearGradient id="linearGradient258" x1="15" x2="8" y1="8" y2="15" gradientUnits="userSpaceOnUse">
      <stop stop-color="#547240" offset="0"/>
      <stop stop-color="#6a9051" offset=".313"/>
      <stop stop-color="#8eb277" offset=".563"/>
      <stop stop-color="#85ac6b" offset=".75"/>
      <stop stop-color="#6e9554" offset="1"/>
    </linearGradient>
    <linearGradient id="linearGradient260" x1="1" x2="8" y1="8" y2="15" gradientUnits="userSpaceOnUse">
      <stop stop-color="#83aa69" offset="0"/>
      <stop stop-color="#a8c495" offset=".313"/>
      <stop stop-color="#6e9554" offset=".563"/>
      <stop stop-color="#91b47b" offset=".75"/>
      <stop stop-color="#91b47b" offset="1"/>
    </linearGradient>
  </defs>
  <g transform="translate(3,3)">
    <g transform="rotate(15,8,8)">
      <path d="m8 1v7h7a7 7 0 0 0-7-7z" fill="url(#linearGradient254)"/>
      <path d="m8 1a7 7 0 0 0-7 7h7z" fill="url(#linearGradient256)"/>
      <path d="m8 8v7a7 7 0 0 0 7-7z" fill="url(#linearGradient258)"/>
      <path d="m1 8a7 7 0 0 0 7 7v-7z" fill="url(#linearGradient260)"/>
    </g>
    <g opacity=".7">
      <path d="m8 1v7h7a7 7 0 0 0-7-7z" fill="url(#linearGradient254)"/>
      <path d="m8 1a7 7 0 0 0-7 7h7z" fill="url(#linearGradient256)"/>
      <path d="m8 8v7a7 7 0 0 0 7-7z" fill="url(#linearGradient258)"/>
      <path d="m1 8a7 7 0 0 0 7 7v-7z" fill="url(#linearGradient260)"/>
    </g>
    <g transform="rotate(45,8,8)" opacity=".35">
      <path d="m8 1v7h7a7 7 0 0 0-7-7z" fill="url(#linearGradient254)"/>
      <path d="m8 1a7 7 0 0 0-7 7h7z" fill="url(#linearGradient256)"/>
      <path d="m8 8v7a7 7 0 0 0 7-7z" fill="url(#linearGradient258)"/>
      <path d="m1 8a7 7 0 0 0 7 7v-7z" fill="url(#linearGradient260)"/>
    </g>
    <g transform="rotate(60,8,8)" opacity=".3">
      <path d="m8 1v7h7a7 7 0 0 0-7-7z" fill="url(#linearGradient254)"/>
      <path d="m8 1a7 7 0 0 0-7 7h7z" fill="url(#linearGradient256)"/>
      <path d="m8 8v7a7 7 0 0 0 7-7z" fill="url(#linearGradient258)"/>
      <path d="m1 8a7 7 0 0 0 7 7v-7z" fill="url(#linearGradient260)"/>
    </g>
  </g>
</svg>
