<svg width="22" height="22" version="1.1" xmlns="http://www.w3.org/2000/svg">
  <defs>
    <style id="current-color-scheme" type="text/css">.ColorScheme-Text { color:#ebdbb2; } .ColorScheme-Highlight { color:#60834a; } .ColorScheme-NeutralText { color:#85ac6b; } .ColorScheme-PositiveText { color:#7ba560; } .ColorScheme-NegativeText { color:#91b47b; }</style>
  </defs>
  <path class="ColorScheme-Text" d="m4 3v2h-1v12h1v2h2v-2h2v2h2v-2h2v2h2v-2h2v2h2v-2h1v-12h-1v-2h-2v2h-2v-2h-2v2h-2v-2h-2v2h-2v-2zm1 4h5v2h-1v-1h-3v3h1v3h2v-1h1v2h-5zm7 0h5v2h-1v-1h-3v3h1v3h2v-1h1v2h-5z" fill="currentColor"/>
</svg>
