<svg width="22" height="22" version="1.1" xmlns="http://www.w3.org/2000/svg">
  <defs>
    <style id="current-color-scheme" type="text/css">.ColorScheme-Text { color:#ebdbb2; } .ColorScheme-Highlight { color:#60834a; } .ColorScheme-NeutralText { color:#85ac6b; } .ColorScheme-PositiveText { color:#7ba560; } .ColorScheme-NegativeText { color:#91b47b; }</style>
  </defs>
  <path class="ColorScheme-Text" d="m3.182 5c-0.6547 0-1.182 0.5344-1.182 1.199v9.602c0 0.665 0.5269 1.199 1.182 1.199h10.64c0.655 0 1.182-0.5342 1.182-1.199v-2.801l5 2v-8l-5 2v-2.801c0-0.6648-0.5266-1.199-1.182-1.199h-10.64zm4.818 2a4 4 0 0 1 4 4 4 4 0 0 1-4 4 4 4 0 0 1-4-4 4 4 0 0 1 4-4zm0 1a3 3 0 0 0-3 3 3 3 0 0 0 3 3 3 3 0 0 0 3-3 3 3 0 0 0-3-3z" fill="currentColor"/>
</svg>
