<svg width="22" height="22" version="1.1" xmlns="http://www.w3.org/2000/svg">
  <defs>
    <style id="current-color-scheme" type="text/css">.ColorScheme-Text { color:#ebdbb2; } .ColorScheme-Highlight { color:#60834a; } .ColorScheme-NeutralText { color:#85ac6b; } .ColorScheme-PositiveText { color:#7ba560; } .ColorScheme-NegativeText { color:#91b47b; }</style>
  </defs>
  <path class="ColorScheme-Text" d="m3 4s-1 0-1 1v11c0 1 1 1 1 1h3l1 1h7l1-1h3s1 0.13 1-1v-11c0-1-1-1-1-1zm1 2h1v2h1v-2h1v2h1v-2h1v2h1v-2h1v2h1v-2h1v2h1v-2h1v2h1v-2h1v9h-3l-1 1h-5l-1-1h-3z" fill="currentColor"/>
</svg>
