<svg width="22" height="22" version="1.1" xmlns="http://www.w3.org/2000/svg">
  <defs>
    <style id="current-color-scheme" type="text/css">.ColorScheme-Text { color:#ebdbb2; } .ColorScheme-Highlight { color:#60834a; } .ColorScheme-NeutralText { color:#85ac6b; } .ColorScheme-PositiveText { color:#7ba560; } .ColorScheme-NegativeText { color:#91b47b; }</style>
  </defs>
  <path class="ColorScheme-Text" d="m5 9h3.1e-6v7c0 2 3.1e-6 3 1.5 3 1.5 0 1.5-1 1.5-3 0 2 0 3 1.5 3s1.5-1 1.5-3c-3e-6 2 3e-6 3 1.5 3 1.5 0 1.5-1 1.5-3-3e-6 2 3e-6 3 1.5 3 1.5 0 1.5-1 1.5-3v-7h-2e-3c2e-3 -3-0.998-6-5.998-6s-6 3-6 6zm3.5-1c0.831 0 1.5 0.669 1.5 1.5s-0.669 1.5-1.5 1.5-1.5-0.669-1.5-1.5 0.669-1.5 1.5-1.5zm6 0c0.831 0 1.5 0.669 1.5 1.5s-0.669 1.5-1.5 1.5-1.5-0.669-1.5-1.5 0.669-1.5 1.5-1.5z" fill="currentColor"/>
</svg>
