<svg width="22" height="22" version="1.1" xmlns="http://www.w3.org/2000/svg">
  <defs>
    <style id="current-color-scheme" type="text/css">.ColorScheme-Text { color:#ebdbb2; } .ColorScheme-Highlight { color:#60834a; } .ColorScheme-NeutralText { color:#85ac6b; } .ColorScheme-PositiveText { color:#7ba560; } .ColorScheme-NegativeText { color:#91b47b; }</style>
  </defs>
  <path class="ColorScheme-Text" d="m10 3c-3.866 0-7 3.582-7 8s3.134 8 7 8c1.347-0.0022 2.665-0.4483 3.795-1.285l-1.281-1.537c-0.7627 0.5358-1.63 0.8194-2.514 0.822-2.761 0-5-2.686-5-6s2.239-6 5-6c1.724 0.00168 3.325 1.069 4.238 2.824l2.742 2.742c-0.2015-4.239-3.265-7.56-6.98-7.566zm3 5 2 4.5-3 1.5 5 6-2-5 3-2z" fill="currentColor"/>
</svg>
