<svg width="22" height="22" version="1.1" xmlns="http://www.w3.org/2000/svg">
  <defs>
    <style id="current-color-scheme" type="text/css">.ColorScheme-Text { color:#ebdbb2; } .ColorScheme-Highlight { color:#60834a; } .ColorScheme-NeutralText { color:#85ac6b; } .ColorScheme-PositiveText { color:#7ba560; } .ColorScheme-NegativeText { color:#91b47b; }</style>
  </defs>
  <path class="ColorScheme-Text" d="m3.801 3c-0.4432 0-0.8008 0.3576-0.8008 0.8008v14.4c0 0.4432 0.3576 0.8008 0.8008 0.8008h14.4c0.4432 0 0.8008-0.3576 0.8008-0.8008v-14.4c0-0.4432-0.3576-0.8008-0.8008-0.8008h-14.4zm4 4h6.398c0.4432 0 0.8008 0.3576 0.8008 0.8008v6.398c0 0.4432-0.3576 0.8008-0.8008 0.8008h-6.398c-0.4432 0-0.8008-0.3576-0.8008-0.8008v-6.398c0-0.4432 0.3576-0.8008 0.8008-0.8008z" fill="currentColor"/>
</svg>
