<svg width="24" height="24" version="1.1" xmlns="http://www.w3.org/2000/svg">
  <defs>
    <style id="current-color-scheme" type="text/css">.ColorScheme-Text { color:#ebdbb2; } .ColorScheme-Highlight { color:#60834a; } .ColorScheme-NeutralText { color:#85ac6b; } .ColorScheme-PositiveText { color:#7ba560; } .ColorScheme-NegativeText { color:#91b47b; }</style>
  </defs>
  <path class="ColorScheme-PositiveText" fill="currentColor" d="m3 6c-0.554 0-1 0.446-1 1v10c0 0.554 0.446 1 1 1h17c0.554 0 1-0.446 1-1v-3h1v-4h-1v-3c0-0.554-0.446-1-1-1zm8 1v4h4l-4 6v-4h-4z" opacity=".3"/>
  <path class="ColorScheme-PositiveText" fill="currentColor" d="m3 6c-0.554 0-1 0.446-1 1v10c0 0.554 0.446 1 1 1h17v-12zm8 1v4h4l-4 6v-4h-4z"/>
</svg>
