<svg width="24" height="24" version="1.1" xmlns="http://www.w3.org/2000/svg">
  <defs>
    <style id="current-color-scheme" type="text/css">.ColorScheme-Text { color:#ebdbb2; } .ColorScheme-Highlight { color:#60834a; } .ColorScheme-NeutralText { color:#85ac6b; } .ColorScheme-PositiveText { color:#7ba560; } .ColorScheme-NegativeText { color:#91b47b; }</style>
  </defs>
  <circle class="ColorScheme-Highlight" cx="21" cy="5" r="2" fill="currentColor"/>
  <path class="ColorScheme-Text" d="m12 4a8 8 0 0 0-8 8 8 8 0 0 0 8 8 8 8 0 0 0 8-8 8 8 0 0 0-8-8zm0 5 0.5762 1s1.424 3 3.424 3 3-2 3-2 0 4-3 4c-2 0-4-1-4-1s-2 1-4 1c-3 0-3-4-3-4s1 2 3 2 3.424-3 3.424-3z" fill="currentColor"/>
</svg>
