<svg width="24" height="24" version="1.1" xmlns="http://www.w3.org/2000/svg">
  <defs>
    <style id="current-color-scheme" type="text/css">.ColorScheme-Text { color:#ebdbb2; } .ColorScheme-Highlight { color:#60834a; } .ColorScheme-NeutralText { color:#85ac6b; } .ColorScheme-PositiveText { color:#7ba560; } .ColorScheme-NegativeText { color:#91b47b; }</style>
  </defs>
  <path class="ColorScheme-Text" d="m8 4a4 4 0 0 0-4 4 4 4 0 0 0 1.115 2.77 7 7 0 0 0-0.1152 1.23 7 7 0 0 0 7 7 7 7 0 0 0 1.238-0.113 4 4 0 0 0 2.762 1.113 4 4 0 0 0 4-4 4 4 0 0 0-1.115-2.77 7 7 0 0 0 0.115-1.23 7 7 0 0 0-7-7 7 7 0 0 0-1.238 0.1133 4 4 0 0 0-2.762-1.113zm0 7.09h8v2h-8v-2z" fill="currentColor"/>
</svg>
