<svg width="24" height="24" version="1.1" xmlns="http://www.w3.org/2000/svg">
  <defs>
    <style id="current-color-scheme" type="text/css">.ColorScheme-Text { color:#ebdbb2; } .ColorScheme-Highlight { color:#60834a; } .ColorScheme-NeutralText { color:#85ac6b; } .ColorScheme-PositiveText { color:#7ba560; } .ColorScheme-NegativeText { color:#91b47b; }</style>
  </defs>
  <path class="ColorScheme-Text" d="m7 5c-0.554 0-1 0.446-1 1s0.446 1 1 1h10c0.554 0 1-0.446 1-1s-0.446-1-1-1zm2 3c-0.554 0-1 0.446-1 1s0.446 1 1 1h8c0.554 0 1-0.446 1-1s-0.446-1-1-1zm-1 3c-0.554 0-1 0.446-1 1s0.446 1 1 1h5c0.554 0 1-0.446 1-1s-0.446-1-1-1zm3 3c-0.554 0-1 0.446-1 1s0.446 1 1 1h4c0.554 0 1-0.446 1-1s-0.446-1-1-1zm-1 3c-0.554 0-1 0.446-1 1s0.446 1 1 1h2c0.554 0 1-0.446 1-1s-0.446-1-1-1z" fill="currentColor"/>
</svg>
