<svg width="24" height="24" version="1.1" xmlns="http://www.w3.org/2000/svg">
  <defs>
    <style id="current-color-scheme" type="text/css">.ColorScheme-Text { color:#ebdbb2; } .ColorScheme-Highlight { color:#60834a; } .ColorScheme-NeutralText { color:#85ac6b; } .ColorScheme-PositiveText { color:#7ba560; } .ColorScheme-NegativeText { color:#91b47b; }</style>
  </defs>
  <path class="ColorScheme-Text" fill="currentColor"  d="m6 5c-0.554 0-1 0.446-1 1s0.446 1 1 1h6c0.554 0 1-0.446 1-1s-0.446-1-1-1h-6zm3 4c-0.554 0-1 0.446-1 1 0 0.554 0.446 1 1 1h10c0.554 0 1-0.446 1-1 0-0.554-0.446-1-1-1h-10zm-4 4c-0.554 0-1 0.446-1 1s0.446 1 1 1h11c0.554 0 1-0.446 1-1s-0.446-1-1-1h-11zm2 4c-0.554 0-1 0.446-1 1s0.446 1 1 1h12c0.554 0 1-0.446 1-1s-0.446-1-1-1h-12z" opacity=".3"/>
</svg>
