<svg width="24" height="24" version="1.1" xmlns="http://www.w3.org/2000/svg">
  <defs>
    <style id="current-color-scheme" type="text/css">.ColorScheme-Text { color:#ebdbb2; } .ColorScheme-Highlight { color:#60834a; } .ColorScheme-NeutralText { color:#85ac6b; } .ColorScheme-PositiveText { color:#7ba560; } .ColorScheme-NegativeText { color:#91b47b; }</style>
  </defs>
  <path class="ColorScheme-Text" d="m12 4a8 8 0 0 0-8 8 8 8 0 0 0 8 8 8 8 0 0 0 8-8 8 8 0 0 0-8-8zm0 3a5 5 0 0 1 5 5 5 5 0 0 1-5 5 5 5 0 0 1-5-5 5 5 0 0 1 5-5zm-0.06055 1a4 4 0 0 0-3.939 4 4 4 0 0 0 4 4 4 4 0 0 0 4-4 4 4 0 0 0-4-4 4 4 0 0 0-0.0078 0 4 4 0 0 0-0.05274 0zm-0.9394 2 3 2-3 2v-2z" fill="currentColor"/>
</svg>
